{
  "version": "",
  "modules": [
    {
      "plugin": "Fundamental",
      "model": "SEQ3",
      "pos": [
        0.0,
        0.0
      ],
      "params": [
        0.45200109481811523,
        0.0,
        0.0,
        8.0,
        0.0,
        0.0,
        0.0,
        0.0,
        2.2500014305114746,
        3.2100000381469727,
        0.0,
        0.0,
        3.7350001335144043,
        5.190000057220459,
        0.0,
        0.0,
        5.4749994277954102,
        0.0,
        0.0,
        0.0,
        3.4049997329711914,
        5.6100006103515625,
        0.0,
        0.0,
        8.2800016403198242,
        2.820000171661377,
        0.0,
        0.0,
        5.7900004386901855,
        3.5699985027313232,
        0.0,
        0.0,
        10.0,
        0.0,
        0.0,
        0.0
      ],
      "data": {
        "running": true,
        "gates": [
          1,
          1,
          1,
          1,
          1,
          1,
          1,
          1
        ],
        "gateMode": 0
      }
    },
    {
      "plugin": "LOGinstruments",
      "model": "Crystal",
      "pos": [
        330.0,
        0.0
      ],
      "params": [
        32.0,
        0.0,
        -0.21600387990474701,
        0.0,
        0.0
      ]
    },
    {
      "plugin": "Core",
      "model": "AudioInterface",
      "pos": [
        840.0,
        0.0
      ],
      "params": [],
      "data": {
        "driver": 1,
        "device": 4,
        "sampleRate": 48000.0,
        "blockSize": 128
      }
    },
    {
      "plugin": "Fundamental",
      "model": "Scope",
      "pos": [
        330.0,
        380.0
      ],
      "params": [
        0.0,
        0.0,
        -0.0,
        0.0,
        -16.0,
        0.0,
        1.6499996185302734,
        0.0
      ],
      "data": {
        "lissajous": 0,
        "external": 0
      }
    },
    {
      "plugin": "Fundamental",
      "model": "LFO",
      "pos": [
        0.0,
        380.0
      ],
      "params": [
        0.0,
        1.0,
        -2.008000373840332,
        0.0,
        0.5,
        0.0,
        0.0
      ]
    },
    {
      "plugin": "Fundamental",
      "model": "LFO",
      "pos": [
        150.0,
        380.0
      ],
      "params": [
        0.0,
        1.0,
        -4.2550039291381836,
        0.0,
        0.5,
        0.0,
        0.0
      ]
    },
    {
      "plugin": "LOGinstruments",
      "model": "Britix",
      "pos": [
        525.0,
        0.0
      ],
      "params": [
        0.0,
        0.0,
        0.0,
        3.0,
        0.0,
        0.0,
        0.0,
        0.0,
        0.0,
        0.0,
        0.0,
        0.0,
        0.0,
        0.0,
        0.0,
        0.0,
        0.0,
        0.0
      ]
    },
    {
      "plugin": "LOGinstruments",
      "model": "Constant2",
      "pos": [
        525.0,
        380.0
      ],
      "params": [
        0.0,
        8.320002555847168,
        0.0
      ]
    }
  ],
  "wires": [
    {
      "outputModuleId": 1,
      "outputId": 1,
      "inputModuleId": 2,
      "inputId": 0
    },
    {
      "outputModuleId": 1,
      "outputId": 2,
      "inputModuleId": 2,
      "inputId": 1
    },
    {
      "outputModuleId": 0,
      "outputId": 0,
      "inputModuleId": 1,
      "inputId": 0
    },
    {
      "outputModuleId": 1,
      "outputId": 0,
      "inputModuleId": 3,
      "inputId": 0
    },
    {
      "outputModuleId": 4,
      "outputId": 0,
      "inputModuleId": 6,
      "inputId": 0
    },
    {
      "outputModuleId": 7,
      "outputId": 1,
      "inputModuleId": 6,
      "inputId": 1
    },
    {
      "outputModuleId": 6,
      "outputId": 3,
      "inputModuleId": 1,
      "inputId": 1
    },
    {
      "outputModuleId": 6,
      "outputId": 3,
      "inputModuleId": 3,
      "inputId": 1
    },
    {
      "outputModuleId": 5,
      "outputId": 0,
      "inputModuleId": 1,
      "inputId": 2
    }
  ]
}