{
  "version": "0.5.1",
  "modules": [
    {
      "plugin": "Core",
      "model": "AudioInterface",
      "pos": [
        975.0,
        0.0
      ],
      "params": [],
      "data": {
        "driver": 4,
        "device": 0,
        "sampleRate": 48000.0,
        "blockSize": 1024
      }
    },
    {
      "plugin": "Fundamental",
      "model": "VCO",
      "pos": [
        480.0,
        380.0
      ],
      "params": [
        1.0,
        1.0,
        0.0,
        0.0,
        0.5,
        0.0,
        0.0
      ]
    },
    {
      "plugin": "Fundamental",
      "model": "VCO",
      "pos": [
        330.0,
        380.0
      ],
      "params": [
        1.0,
        1.0,
        0.0,
        0.0,
        0.5,
        0.0,
        0.0
      ]
    },
    {
      "plugin": "mtsch-plugins",
      "model": "Rationals",
      "pos": [
        480.0,
        0.0
      ],
      "params": [
        7.4350261688232422,
        8.1024932861328125,
        7.9975032806396484,
        8.9800119400024414,
        6.6025028228759766,
        16.0,
        1.0,
        1.0
      ]
    },
    {
      "plugin": "Fundamental",
      "model": "SEQ3",
      "pos": [
        0.0,
        0.0
      ],
      "params": [
        2.0,
        0.0,
        0.0,
        8.0,
        0.0,
        2.6400001049041748,
        0.0,
        0.0,
        0.0,
        2.8800008296966553,
        0.0,
        0.0,
        0.0,
        4.9050006866455078,
        0.0,
        0.0,
        0.0,
        1.5000011920928955,
        0.0,
        0.0,
        0.0,
        1.7399997711181641,
        0.0,
        0.0,
        0.0,
        1.6349992752075195,
        0.0,
        0.0,
        0.0,
        1.6349996328353882,
        0.0,
        0.0,
        0.0,
        1.6799994707107544,
        0.0,
        0.0
      ],
      "data": {
        "running": true,
        "gates": [
          1,
          1,
          1,
          1,
          1,
          1,
          1,
          1
        ],
        "gateMode": 0
      }
    },
    {
      "plugin": "mtsch-plugins",
      "model": "Rationals",
      "pos": [
        330.0,
        0.0
      ],
      "params": [
        1.0,
        4.1500015258789062,
        1.0,
        1.0,
        1.0,
        1.0,
        1.0,
        1.0
      ]
    },
    {
      "plugin": "Fundamental",
      "model": "SEQ3",
      "pos": [
        0.0,
        380.0
      ],
      "params": [
        2.0,
        0.0,
        0.0,
        7.0,
        0.0,
        0.0,
        0.0,
        0.0,
        0.0,
        0.0,
        0.0,
        0.0,
        0.0,
        0.0,
        0.0,
        0.0,
        1.0949996709823608,
        0.0,
        0.0,
        0.0,
        0.86999994516372681,
        0.0,
        0.0,
        0.0,
        1.6949996948242188,
        0.0,
        0.0,
        0.0,
        1.7099997997283936,
        0.0,
        0.0,
        0.0,
        0.0,
        0.0,
        0.0,
        0.0
      ],
      "data": {
        "running": true,
        "gates": [
          1,
          1,
          1,
          1,
          1,
          1,
          1,
          1
        ],
        "gateMode": 0
      }
    },
    {
      "plugin": "Fundamental",
      "model": "Scope",
      "pos": [
        780.0,
        0.0
      ],
      "params": [
        0.0,
        0.0,
        0.0,
        0.0,
        -14.0,
        0.0,
        0.0,
        0.0
      ],
      "data": {
        "lissajous": 1,
        "external": 0
      }
    },
    {
      "plugin": "Fundamental",
      "model": "VCF",
      "pos": [
        780.0,
        380.0
      ],
      "params": [
        0.49849992990493774,
        0.5,
        0.42300039529800415,
        0.13199999928474426,
        0.29250016808509827
      ]
    },
    {
      "plugin": "Fundamental",
      "model": "LFO",
      "pos": [
        990.0,
        380.0
      ],
      "params": [
        1.0,
        1.0,
        -1.1259996891021729,
        0.36450013518333435,
        0.51950031518936157,
        0.27600002288818359,
        0.0
      ]
    },
    {
      "plugin": "Fundamental",
      "model": "LFO2",
      "pos": [
        900.0,
        380.0
      ],
      "params": [
        1.0,
        1.0,
        -4.1500000953674316,
        1.5,
        0.5
      ]
    },
    {
      "plugin": "Fundamental",
      "model": "VCO",
      "pos": [
        630.0,
        380.0
      ],
      "params": [
        1.0,
        1.0,
        0.0,
        0.0,
        0.5,
        0.0,
        0.0
      ]
    },
    {
      "plugin": "mtsch-plugins",
      "model": "Sum",
      "pos": [
        630.0,
        0.0
      ],
      "params": [
        1.0,
        1.0,
        1.0,
        1.0,
        1.0,
        1.0,
        1.0,
        1.0
      ]
    },
    {
      "plugin": "Fundamental",
      "model": "VCA",
      "pos": [
        690.0,
        0.0
      ],
      "params": [
        0.19249990582466125,
        0.5
      ]
    }
  ],
  "wires": [
    {
      "outputModuleId": 1,
      "outputId": 3,
      "inputModuleId": 7,
      "inputId": 1
    },
    {
      "outputModuleId": 3,
      "outputId": 1,
      "inputModuleId": 1,
      "inputId": 0
    },
    {
      "outputModuleId": 2,
      "outputId": 3,
      "inputModuleId": 7,
      "inputId": 0
    },
    {
      "outputModuleId": 4,
      "outputId": 2,
      "inputModuleId": 5,
      "inputId": 4
    },
    {
      "outputModuleId": 5,
      "outputId": 0,
      "inputModuleId": 3,
      "inputId": 0
    },
    {
      "outputModuleId": 3,
      "outputId": 0,
      "inputModuleId": 2,
      "inputId": 0
    },
    {
      "outputModuleId": 5,
      "outputId": 0,
      "inputModuleId": 3,
      "inputId": 1
    },
    {
      "outputModuleId": 6,
      "outputId": 1,
      "inputModuleId": 5,
      "inputId": 5
    },
    {
      "outputModuleId": 4,
      "outputId": 4,
      "inputModuleId": 6,
      "inputId": 1
    },
    {
      "outputModuleId": 9,
      "outputId": 0,
      "inputModuleId": 8,
      "inputId": 0
    },
    {
      "outputModuleId": 4,
      "outputId": 2,
      "inputModuleId": 9,
      "inputId": 0
    },
    {
      "outputModuleId": 10,
      "outputId": 0,
      "inputModuleId": 9,
      "inputId": 1
    },
    {
      "outputModuleId": 3,
      "outputId": 2,
      "inputModuleId": 11,
      "inputId": 0
    },
    {
      "outputModuleId": 5,
      "outputId": 0,
      "inputModuleId": 3,
      "inputId": 2
    },
    {
      "outputModuleId": 11,
      "outputId": 1,
      "inputModuleId": 12,
      "inputId": 2
    },
    {
      "outputModuleId": 12,
      "outputId": 0,
      "inputModuleId": 13,
      "inputId": 2
    },
    {
      "outputModuleId": 8,
      "outputId": 0,
      "inputModuleId": 0,
      "inputId": 1
    },
    {
      "outputModuleId": 1,
      "outputId": 3,
      "inputModuleId": 12,
      "inputId": 1
    },
    {
      "outputModuleId": 2,
      "outputId": 3,
      "inputModuleId": 12,
      "inputId": 0
    },
    {
      "outputModuleId": 13,
      "outputId": 0,
      "inputModuleId": 8,
      "inputId": 3
    },
    {
      "outputModuleId": 8,
      "outputId": 0,
      "inputModuleId": 0,
      "inputId": 0
    }
  ]
}