{
  "version": "0.5.1",
  "modules": [
    {
      "plugin": "Fundamental",
      "model": "SEQ3",
      "pos": [
        0.0,
        0.0
      ],
      "params": [
        2.0,
        0.0,
        0.0,
        8.0,
        0.0,
        1.5449995994567871,
        2.9850006103515625,
        0.0,
        1.0649998188018799,
        0.0,
        2.8050012588500977,
        0.0,
        3.1800003051757812,
        2.1149997711181641,
        2.6700010299682617,
        0.0,
        0.72000002861022949,
        5.0099992752075195,
        2.6999995708465576,
        0.0,
        0.0,
        2.2200000286102295,
        3.6600010395050049,
        0.0,
        1.5149999856948853,
        0.0,
        3.9450004100799561,
        0.0,
        4.244999885559082,
        2.1899991035461426,
        3.7950003147125244,
        0.0,
        5.3849997520446777,
        3.5250008106231689,
        3.9300014972686768,
        0.0
      ],
      "data": {
        "running": true,
        "gates": [
          1,
          1,
          1,
          1,
          1,
          1,
          1,
          1
        ],
        "gateMode": 0
      }
    },
    {
      "plugin": "Core",
      "model": "AudioInterface",
      "pos": [
        1110.0,
        0.0
      ],
      "params": [],
      "data": {
        "driver": 4,
        "device": 0,
        "sampleRate": 48000.0,
        "blockSize": 1024
      }
    },
    {
      "plugin": "Fundamental",
      "model": "VCO",
      "pos": [
        660.0,
        0.0
      ],
      "params": [
        1.0,
        1.0,
        0.0,
        0.0,
        0.5,
        0.0,
        0.0
      ]
    },
    {
      "plugin": "Fundamental",
      "model": "VCO",
      "pos": [
        810.0,
        0.0
      ],
      "params": [
        1.0,
        1.0,
        0.0,
        0.0,
        0.5,
        0.0,
        0.0
      ]
    },
    {
      "plugin": "Fundamental",
      "model": "VCMixer",
      "pos": [
        1005.0,
        380.0
      ],
      "params": [
        0.15899999439716339,
        0.25499993562698364,
        0.23249997198581696,
        0.20399999618530273
      ]
    },
    {
      "plugin": "Fundamental",
      "model": "VCO",
      "pos": [
        960.0,
        0.0
      ],
      "params": [
        1.0,
        1.0,
        0.0,
        0.0,
        0.5,
        0.0,
        0.0
      ]
    },
    {
      "plugin": "Fundamental",
      "model": "Scope",
      "pos": [
        420.0,
        380.0
      ],
      "params": [
        0.0,
        0.0,
        0.0,
        0.0,
        -14.0,
        0.0,
        0.0,
        0.0
      ],
      "data": {
        "lissajous": 1,
        "external": 0
      }
    },
    {
      "plugin": "mtsch-plugins",
      "model": "Rationals",
      "pos": [
        510.0,
        0.0
      ],
      "params": [
        1.0,
        4.352501392364502,
        5.8825020790100098,
        7.9525041580200195,
        1.0,
        4.1275010108947754,
        1.0,
        1.0
      ]
    },
    {
      "plugin": "mtsch-plugins",
      "model": "Sum",
      "pos": [
        450.0,
        0.0
      ],
      "params": [
        1.0,
        0.0,
        1.0,
        1.0,
        1.0,
        1.0,
        1.0,
        1.0
      ]
    },
    {
      "plugin": "Fundamental",
      "model": "LFO",
      "pos": [
        0.0,
        380.0
      ],
      "params": [
        1.0,
        1.0,
        -4.5909981727600098,
        0.0,
        0.5,
        0.0,
        0.0
      ]
    },
    {
      "plugin": "Fundamental",
      "model": "8vert",
      "pos": [
        330.0,
        0.0
      ],
      "params": [
        1.0,
        0.066000007092952728,
        0.0,
        0.0,
        0.0,
        0.0,
        0.0,
        0.0
      ]
    },
    {
      "plugin": "Core",
      "model": "Notes",
      "pos": [
        150.0,
        380.0
      ],
      "params": [],
      "text": "Flick the switches in Sum to change the melody."
    },
    {
      "plugin": "Fundamental",
      "model": "Scope",
      "pos": [
        615.0,
        380.0
      ],
      "params": [
        0.0,
        0.0,
        0.0,
        0.0,
        -14.0,
        0.0,
        0.0,
        0.0
      ],
      "data": {
        "lissajous": 1,
        "external": 0
      }
    },
    {
      "plugin": "Fundamental",
      "model": "Scope",
      "pos": [
        810.0,
        380.0
      ],
      "params": [
        0.0,
        0.0,
        0.0,
        0.0,
        -14.0,
        0.0,
        0.0,
        0.0
      ],
      "data": {
        "lissajous": 1,
        "external": 0
      }
    }
  ],
  "wires": [
    {
      "outputModuleId": 2,
      "outputId": 1,
      "inputModuleId": 4,
      "inputId": 1
    },
    {
      "outputModuleId": 3,
      "outputId": 1,
      "inputModuleId": 4,
      "inputId": 3
    },
    {
      "outputModuleId": 5,
      "outputId": 1,
      "inputModuleId": 4,
      "inputId": 5
    },
    {
      "outputModuleId": 2,
      "outputId": 0,
      "inputModuleId": 6,
      "inputId": 0
    },
    {
      "outputModuleId": 5,
      "outputId": 0,
      "inputModuleId": 6,
      "inputId": 1
    },
    {
      "outputModuleId": 7,
      "outputId": 0,
      "inputModuleId": 2,
      "inputId": 0
    },
    {
      "outputModuleId": 0,
      "outputId": 1,
      "inputModuleId": 8,
      "inputId": 0
    },
    {
      "outputModuleId": 7,
      "outputId": 1,
      "inputModuleId": 3,
      "inputId": 0
    },
    {
      "outputModuleId": 8,
      "outputId": 0,
      "inputModuleId": 7,
      "inputId": 4
    },
    {
      "outputModuleId": 0,
      "outputId": 2,
      "inputModuleId": 8,
      "inputId": 1
    },
    {
      "outputModuleId": 7,
      "outputId": 2,
      "inputModuleId": 5,
      "inputId": 0
    },
    {
      "outputModuleId": 9,
      "outputId": 0,
      "inputModuleId": 10,
      "inputId": 1
    },
    {
      "outputModuleId": 10,
      "outputId": 1,
      "inputModuleId": 7,
      "inputId": 6
    },
    {
      "outputModuleId": 0,
      "outputId": 3,
      "inputModuleId": 7,
      "inputId": 8
    },
    {
      "outputModuleId": 3,
      "outputId": 0,
      "inputModuleId": 12,
      "inputId": 1
    },
    {
      "outputModuleId": 2,
      "outputId": 0,
      "inputModuleId": 12,
      "inputId": 0
    },
    {
      "outputModuleId": 5,
      "outputId": 0,
      "inputModuleId": 13,
      "inputId": 0
    },
    {
      "outputModuleId": 3,
      "outputId": 0,
      "inputModuleId": 13,
      "inputId": 1
    },
    {
      "outputModuleId": 4,
      "outputId": 0,
      "inputModuleId": 1,
      "inputId": 0
    },
    {
      "outputModuleId": 4,
      "outputId": 0,
      "inputModuleId": 1,
      "inputId": 1
    }
  ]
}