{
  "version": "0.5.1",
  "modules": [
    {
      "plugin": "Core",
      "model": "AudioInterface",
      "pos": [
        1110.0,
        0.0
      ],
      "params": [],
      "data": {
        "driver": 4,
        "device": 0,
        "sampleRate": 48000.0,
        "blockSize": 1024
      }
    },
    {
      "plugin": "Fundamental",
      "model": "VCF",
      "pos": [
        1170.0,
        380.0
      ],
      "params": [
        0.32599979639053345,
        0.5,
        0.26099997758865356,
        0.36899992823600769,
        0.17550002038478851
      ]
    },
    {
      "plugin": "Fundamental",
      "model": "VCO",
      "pos": [
        450.0,
        380.0
      ],
      "params": [
        1.0,
        1.0,
        0.0,
        0.0,
        0.5,
        0.0,
        0.0
      ]
    },
    {
      "plugin": "Fundamental",
      "model": "VCO",
      "pos": [
        300.0,
        380.0
      ],
      "params": [
        1.0,
        1.0,
        0.0,
        0.0,
        0.5,
        0.0,
        0.0
      ]
    },
    {
      "plugin": "Fundamental",
      "model": "VCO",
      "pos": [
        600.0,
        380.0
      ],
      "params": [
        1.0,
        1.0,
        0.0,
        0.0,
        0.5,
        0.0,
        0.0
      ]
    },
    {
      "plugin": "mtsch-plugins",
      "model": "Rationals",
      "pos": [
        150.0,
        380.0
      ],
      "params": [
        1.0,
        1.0,
        5.7250018119812012,
        4.8250031471252441,
        3.092501163482666,
        4.3075008392333984,
        1.0,
        1.0
      ]
    },
    {
      "plugin": "Fundamental",
      "model": "VCMixer",
      "pos": [
        750.0,
        380.0
      ],
      "params": [
        0.56600016355514526,
        1.0,
        1.0,
        1.0
      ]
    },
    {
      "plugin": "Fundamental",
      "model": "ADSR",
      "pos": [
        900.0,
        380.0
      ],
      "params": [
        0.0,
        0.61699998378753662,
        0.0,
        0.50749999284744263
      ]
    },
    {
      "plugin": "Fundamental",
      "model": "SEQ3",
      "pos": [
        0.0,
        760.0
      ],
      "params": [
        1.8199994564056396,
        0.0,
        0.0,
        8.0,
        0.0,
        0.0,
        0.0,
        0.0,
        0.0,
        0.0,
        0.0,
        0.0,
        0.0,
        0.0,
        0.0,
        0.0,
        0.0,
        0.0,
        0.0,
        0.0,
        0.0,
        0.0,
        0.0,
        0.0,
        0.0,
        0.0,
        0.0,
        0.0,
        0.0,
        0.0,
        0.0,
        0.0,
        0.0,
        0.0,
        0.0,
        0.0
      ],
      "data": {
        "running": true,
        "gates": [
          1,
          0,
          1,
          0,
          1,
          0,
          1,
          0
        ],
        "gateMode": 1
      }
    },
    {
      "plugin": "mtsch-plugins",
      "model": "TriggerPanic",
      "pos": [
        0.0,
        0.0
      ],
      "params": [
        0.0,
        0.5,
        0.0,
        0.70850050449371338,
        0.0
      ]
    },
    {
      "plugin": "Fundamental",
      "model": "VCMixer",
      "pos": [
        960.0,
        0.0
      ],
      "params": [
        0.5,
        0.48900017142295837,
        0.50249999761581421,
        0.0
      ]
    },
    {
      "plugin": "AudibleInstruments",
      "model": "Braids",
      "pos": [
        330.0,
        760.0
      ],
      "params": [
        0.74700099229812622,
        0.0,
        -1.2540000677108765,
        0.0,
        0.69200015068054199,
        0.0,
        0.44150018692016602
      ],
      "data": {
        "settings": [
          34,
          0,
          0,
          0,
          0,
          0,
          0,
          0,
          0,
          0,
          0,
          0,
          255,
          0,
          0,
          0,
          0,
          0,
          0,
          0
        ],
        "lowCpu": false
      }
    },
    {
      "plugin": "Fundamental",
      "model": "VCF",
      "pos": [
        150.0,
        0.0
      ],
      "params": [
        0.46250003576278687,
        0.5,
        0.0,
        0.0,
        0.0
      ]
    },
    {
      "plugin": "Fundamental",
      "model": "SEQ3",
      "pos": [
        270.0,
        0.0
      ],
      "params": [
        2.0,
        0.0,
        0.0,
        6.0,
        1.7249997854232788,
        0.0,
        0.0,
        0.0,
        0.0,
        0.0,
        0.0,
        0.0,
        0.0,
        0.0,
        0.0,
        0.0,
        0.0,
        0.0,
        0.0,
        0.0,
        0.0,
        0.0,
        0.0,
        0.0,
        0.0,
        0.0,
        0.0,
        0.0,
        0.0,
        0.0,
        0.0,
        0.0,
        0.0,
        0.0,
        0.0,
        0.0
      ],
      "data": {
        "running": true,
        "gates": [
          1,
          0,
          0,
          1,
          0,
          0,
          0,
          0
        ],
        "gateMode": 0
      }
    },
    {
      "plugin": "Fundamental",
      "model": "LFO",
      "pos": [
        0.0,
        380.0
      ],
      "params": [
        1.0,
        1.0,
        1.7510010004043579,
        0.0,
        0.5,
        0.0,
        0.0
      ]
    },
    {
      "plugin": "Fundamental",
      "model": "LFO",
      "pos": [
        1020.0,
        760.0
      ],
      "params": [
        1.0,
        1.0,
        -1.9240007400512695,
        0.0,
        0.5,
        0.0,
        0.0
      ]
    },
    {
      "plugin": "Fundamental",
      "model": "VCMixer",
      "pos": [
        1020.0,
        380.0
      ],
      "params": [
        0.5,
        0.56850004196166992,
        0.71099996566772461,
        0.0
      ]
    },
    {
      "plugin": "mtsch-plugins",
      "model": "Rationals",
      "pos": [
        600.0,
        0.0
      ],
      "params": [
        4.2850008010864258,
        4.465001106262207,
        1.0,
        1.0,
        1.0,
        1.0,
        1.0,
        1.0
      ]
    },
    {
      "plugin": "mtsch-plugins",
      "model": "TriggerPanic",
      "pos": [
        720.0,
        1900.0
      ],
      "params": [
        0.0,
        0.5,
        0.0,
        0.5,
        0.0
      ]
    }
  ],
  "wires": [
    {
      "outputModuleId": 5,
      "outputId": 0,
      "inputModuleId": 3,
      "inputId": 0
    },
    {
      "outputModuleId": 5,
      "outputId": 1,
      "inputModuleId": 2,
      "inputId": 0
    },
    {
      "outputModuleId": 5,
      "outputId": 2,
      "inputModuleId": 4,
      "inputId": 0
    },
    {
      "outputModuleId": 4,
      "outputId": 2,
      "inputModuleId": 6,
      "inputId": 1
    },
    {
      "outputModuleId": 2,
      "outputId": 2,
      "inputModuleId": 6,
      "inputId": 3
    },
    {
      "outputModuleId": 3,
      "outputId": 2,
      "inputModuleId": 6,
      "inputId": 5
    },
    {
      "outputModuleId": 6,
      "outputId": 0,
      "inputModuleId": 1,
      "inputId": 3
    },
    {
      "outputModuleId": 7,
      "outputId": 0,
      "inputModuleId": 16,
      "inputId": 1
    },
    {
      "outputModuleId": 8,
      "outputId": 4,
      "inputModuleId": 7,
      "inputId": 4
    },
    {
      "outputModuleId": 1,
      "outputId": 0,
      "inputModuleId": 9,
      "inputId": 4
    },
    {
      "outputModuleId": 10,
      "outputId": 0,
      "inputModuleId": 0,
      "inputId": 0
    },
    {
      "outputModuleId": 10,
      "outputId": 0,
      "inputModuleId": 0,
      "inputId": 1
    },
    {
      "outputModuleId": 9,
      "outputId": 1,
      "inputModuleId": 10,
      "inputId": 1
    },
    {
      "outputModuleId": 8,
      "outputId": 0,
      "inputModuleId": 11,
      "inputId": 0
    },
    {
      "outputModuleId": 11,
      "outputId": 0,
      "inputModuleId": 10,
      "inputId": 3
    },
    {
      "outputModuleId": 9,
      "outputId": 0,
      "inputModuleId": 12,
      "inputId": 3
    },
    {
      "outputModuleId": 12,
      "outputId": 1,
      "inputModuleId": 9,
      "inputId": 3
    },
    {
      "outputModuleId": 14,
      "outputId": 3,
      "inputModuleId": 8,
      "inputId": 1
    },
    {
      "outputModuleId": 14,
      "outputId": 3,
      "inputModuleId": 13,
      "inputId": 1
    },
    {
      "outputModuleId": 13,
      "outputId": 0,
      "inputModuleId": 9,
      "inputId": 0
    },
    {
      "outputModuleId": 15,
      "outputId": 0,
      "inputModuleId": 16,
      "inputId": 3
    },
    {
      "outputModuleId": 16,
      "outputId": 0,
      "inputModuleId": 1,
      "inputId": 0
    },
    {
      "outputModuleId": 7,
      "outputId": 0,
      "inputModuleId": 6,
      "inputId": 0
    },
    {
      "outputModuleId": 17,
      "outputId": 0,
      "inputModuleId": 5,
      "inputId": 0
    },
    {
      "outputModuleId": 17,
      "outputId": 0,
      "inputModuleId": 5,
      "inputId": 1
    },
    {
      "outputModuleId": 17,
      "outputId": 0,
      "inputModuleId": 5,
      "inputId": 2
    },
    {
      "outputModuleId": 13,
      "outputId": 1,
      "inputModuleId": 17,
      "inputId": 5
    }
  ]
}