{
  "version": "0.4.0",
  "modules": [
    {
      "plugin": "AudibleInstruments",
      "model": "Branches",
      "pos": [
        480.0,
        760.0
      ],
      "params": [
        0.54499995708465576,
        0.351500004529953
      ]
    },
    {
      "plugin": "AudibleInstruments",
      "model": "Kinks",
      "pos": [
        645.0,
        380.0
      ],
      "params": []
    },
    {
      "plugin": "ML_modules",
      "model": "ShiftRegister",
      "pos": [
        765.0,
        380.0
      ],
      "params": []
    },
    {
      "plugin": "AudibleInstruments",
      "model": "Elements",
      "pos": [
        720.0,
        0.0
      ],
      "params": [
        1.0,
        0.44699996709823608,
        0.19500000774860382,
        0.049999900162220001,
        -17.730001449584961,
        0.0,
        0.0,
        0.37849995493888855,
        0.10699998587369919,
        0.5,
        0.5,
        0.5,
        0.5,
        0.5,
        0.5,
        0.5,
        1.4789997339248657,
        0.76199990510940552,
        0.80999994277954102,
        0.74099999666213989,
        0.66000008583068848,
        0.75000011920928955,
        0.76500016450881958,
        0.83399999141693115,
        0.90399998426437378,
        0.63599997758865356,
        0.0,
        0.0
      ],
      "data": {
        "model": 0
      }
    },
    {
      "plugin": "Fundamental",
      "model": "LFO",
      "pos": [
        150.0,
        380.0
      ],
      "params": [
        1.0,
        1.0,
        -1.9240000247955322,
        0.0,
        0.5,
        0.0,
        0.0
      ]
    },
    {
      "plugin": "Fundamental",
      "model": "LFO",
      "pos": [
        0.0,
        380.0
      ],
      "params": [
        1.0,
        1.0,
        -2.8479998111724854,
        0.0,
        0.5,
        0.0,
        0.0
      ]
    },
    {
      "plugin": "Fundamental",
      "model": "LFO",
      "pos": [
        300.0,
        380.0
      ],
      "params": [
        1.0,
        1.0,
        -0.47499993443489075,
        0.0,
        0.5,
        0.0,
        0.0
      ]
    },
    {
      "plugin": "mental",
      "model": "MentalMixer",
      "pos": [
        0.0,
        0.0
      ],
      "params": [
        0.19950000941753387,
        1.0,
        0.0,
        1.0,
        0.0,
        0.0,
        0.5,
        0.0,
        0.0,
        0.0,
        0.0,
        0.5,
        0.0,
        0.0,
        0.0,
        0.0,
        0.5,
        0.0,
        0.0,
        0.0,
        0.0,
        0.5,
        0.0,
        0.0,
        0.0,
        0.0,
        0.5,
        0.0,
        0.0,
        0.0,
        0.0,
        0.5,
        0.0,
        0.0,
        0.0,
        0.0,
        0.5,
        0.0,
        0.0,
        0.0,
        0.0,
        0.5,
        0.0,
        0.0,
        0.0,
        0.6314997673034668,
        0.5,
        0.21899999678134918,
        0.0,
        0.0,
        0.64049994945526123,
        0.5,
        0.226500004529953,
        0.0,
        0.0,
        0.42749997973442078,
        0.5,
        0.55949997901916504,
        0.0,
        0.0,
        0.43200001120567322,
        0.5,
        0.471000075340271,
        0.0,
        0.0
      ],
      "data": {
        "mutes": [
          1,
          1,
          1,
          1,
          1,
          1,
          1,
          1,
          1,
          1,
          1,
          1
        ]
      }
    },
    {
      "plugin": "Core",
      "model": "AudioInterface",
      "pos": [
        540.0,
        0.0
      ],
      "params": [],
      "data": {
        "deviceName": "ASIO: Focusrite USB 2.0 Audio Driver (18 in, 20 out)",
        "sampleRate": 44100.0,
        "blockSize": 256
      }
    },
    {
      "plugin": "mental",
      "model": "MentalMuxes",
      "pos": [
        525.0,
        380.0
      ],
      "params": []
    },
    {
      "plugin": "mental",
      "model": "MentalABSwitches",
      "pos": [
        450.0,
        380.0
      ],
      "params": [
        0.0,
        0.0,
        0.0,
        0.0
      ],
      "data": {
        "buttons": [
          0,
          0,
          0,
          0
        ]
      }
    },
    {
      "plugin": "mental",
      "model": "MentalMuxes",
      "pos": [
        585.0,
        380.0
      ],
      "params": []
    },
    {
      "plugin": "AudibleInstruments",
      "model": "Kinks",
      "pos": [
        705.0,
        380.0
      ],
      "params": []
    },
    {
      "plugin": "mental",
      "model": "MentalPatchMatrix",
      "pos": [
        195.0,
        760.0
      ],
      "params": [
        0.0,
        0.0,
        0.0,
        0.0,
        0.0,
        0.0,
        0.0,
        0.0,
        0.0,
        0.0,
        0.0,
        0.0,
        0.0,
        0.0,
        0.0,
        0.0,
        0.0,
        0.0,
        0.0,
        0.0,
        0.0,
        0.0,
        0.0,
        0.0,
        0.0,
        0.0,
        0.0,
        0.0,
        0.0,
        0.0,
        0.0,
        0.0,
        0.0,
        0.0,
        0.0,
        0.0,
        0.0,
        0.0,
        0.0,
        0.0,
        0.0,
        0.0,
        0.0,
        0.0,
        0.0,
        0.0,
        0.0,
        0.0,
        0.0,
        0.0,
        0.0,
        0.0,
        0.0,
        0.0,
        0.0,
        0.0,
        0.0,
        0.0,
        0.0,
        0.0,
        0.0,
        0.0,
        0.0,
        0.0,
        0.0,
        0.0,
        0.0,
        0.0,
        0.0,
        0.0,
        0.0,
        0.0,
        0.0,
        0.0,
        0.0,
        0.0,
        0.0,
        0.0,
        0.0,
        0.0,
        0.0,
        0.0,
        0.0,
        0.0,
        0.0,
        0.0,
        0.0,
        0.0,
        0.0,
        0.0,
        0.0,
        0.0,
        0.0,
        0.0,
        0.0,
        0.0,
        0.0,
        0.0,
        0.0,
        0.0
      ],
      "data": {
        "buttons": [
          0,
          0,
          1,
          0,
          0,
          0,
          0,
          0,
          0,
          0,
          0,
          0,
          0,
          0,
          0,
          0,
          0,
          0,
          1,
          0,
          1,
          0,
          0,
          0,
          0,
          1,
          0,
          0,
          0,
          1,
          0,
          0,
          0,
          0,
          0,
          0,
          0,
          0,
          0,
          0,
          0,
          0,
          0,
          0,
          1,
          0,
          0,
          0,
          0,
          0,
          0,
          0,
          0,
          0,
          0,
          0,
          1,
          0,
          0,
          0,
          0,
          0,
          0,
          0,
          0,
          0,
          0,
          0,
          1,
          0,
          0,
          0,
          0,
          0,
          0,
          1,
          0,
          0,
          0,
          0,
          0,
          1,
          0,
          1,
          0,
          0,
          0,
          0,
          0,
          0,
          1,
          0,
          1,
          0,
          1,
          0,
          0,
          1,
          0,
          0
        ]
      }
    },
    {
      "plugin": "AudibleInstruments",
      "model": "Branches",
      "pos": [
        570.0,
        760.0
      ],
      "params": [
        0.37099996209144592,
        0.36500000953674316
      ]
    },
    {
      "plugin": "AudibleInstruments",
      "model": "Branches",
      "pos": [
        660.0,
        760.0
      ],
      "params": [
        0.36199995875358582,
        0.34099999070167542
      ]
    },
    {
      "plugin": "AudibleInstruments",
      "model": "Branches",
      "pos": [
        750.0,
        760.0
      ],
      "params": [
        0.37849998474121094,
        0.33649998903274536
      ]
    },
    {
      "plugin": "AudibleInstruments",
      "model": "Branches",
      "pos": [
        840.0,
        760.0
      ],
      "params": [
        0.42200002074241638,
        0.32449999451637268
      ]
    },
    {
      "plugin": "ML_modules",
      "model": "ShiftRegister",
      "pos": [
        825.0,
        380.0
      ],
      "params": []
    },
    {
      "plugin": "mental",
      "model": "MentalQuantiser",
      "pos": [
        885.0,
        380.0
      ],
      "params": [
        -5.1480007171630859,
        0.0,
        0.0,
        0.0,
        0.0,
        0.0,
        0.0,
        0.0,
        0.0,
        0.0,
        0.0,
        0.0,
        0.0
      ],
      "data": {
        "buttons": [
          1,
          0,
          1,
          0,
          1,
          1,
          0,
          1,
          0,
          1,
          1,
          0
        ]
      }
    },
    {
      "plugin": "mental",
      "model": "MentalMux8",
      "pos": [
        1095.0,
        380.0
      ],
      "params": []
    },
    {
      "plugin": "mental",
      "model": "MentalPitchShift",
      "pos": [
        975.0,
        380.0
      ],
      "params": [
        0.94499993324279785,
        -0.85050022602081299,
        0.0,
        0.0
      ]
    },
    {
      "plugin": "AudibleInstruments",
      "model": "Branches",
      "pos": [
        1020.0,
        760.0
      ],
      "params": [
        0.29300001263618469,
        0.77149999141693115
      ]
    },
    {
      "plugin": "AudibleInstruments",
      "model": "Branches",
      "pos": [
        930.0,
        760.0
      ],
      "params": [
        0.35600000619888306,
        0.5
      ]
    },
    {
      "plugin": "mental",
      "model": "MentalPitchShift",
      "pos": [
        1035.0,
        380.0
      ],
      "params": [
        -1.2824999094009399,
        0.0,
        0.0,
        0.0
      ]
    },
    {
      "plugin": "mental",
      "model": "MentalClockDivider",
      "pos": [
        150.0,
        760.0
      ],
      "params": [
        0.0
      ]
    },
    {
      "plugin": "Fundamental",
      "model": "LFO",
      "pos": [
        0.0,
        760.0
      ],
      "params": [
        1.0,
        1.0,
        1.1000001430511475,
        0.0,
        0.5,
        0.0,
        0.0
      ]
    },
    {
      "plugin": "NYSTHI",
      "model": "MVerb",
      "pos": [
        450.0,
        0.0
      ],
      "params": [
        1.0,
        0.5,
        0.5,
        0.66450005769729614,
        0.5,
        0.68000000715255737,
        0.60000002384185791,
        0.73100000619888306,
        0.5,
        0.0
      ]
    },
    {
      "plugin": "ArableInstruments",
      "model": "Joni",
      "pos": [
        1350.0,
        0.0
      ],
      "params": [
        0.72049981355667114,
        0.88850009441375732,
        0.0,
        0.5,
        0.75199997425079346,
        0.64999997615814209,
        1.0,
        0.75499999523162842,
        0.67849993705749512,
        0.81050008535385132,
        0.0
      ],
      "data": {
        "playbackmode": 0,
        "lofi": 0,
        "mono": 0,
        "freeze": 0
      }
    },
    {
      "plugin": "mental",
      "model": "MentalSubMixer",
      "pos": [
        1230.0,
        0.0
      ],
      "params": [
        0.85749983787536621,
        0.62249994277954102,
        0.0,
        0.63000011444091797,
        1.0,
        0.0,
        0.5,
        0.0,
        0.5
      ]
    }
  ],
  "wires": [
    {
      "outputModuleId": 7,
      "outputId": 0,
      "inputModuleId": 8,
      "inputId": 0
    },
    {
      "outputModuleId": 7,
      "outputId": 1,
      "inputModuleId": 8,
      "inputId": 1
    },
    {
      "outputModuleId": 3,
      "outputId": 0,
      "inputModuleId": 7,
      "inputId": 40
    },
    {
      "outputModuleId": 3,
      "outputId": 1,
      "inputModuleId": 7,
      "inputId": 44
    },
    {
      "outputModuleId": 5,
      "outputId": 1,
      "inputModuleId": 9,
      "inputId": 1
    },
    {
      "outputModuleId": 4,
      "outputId": 1,
      "inputModuleId": 9,
      "inputId": 4
    },
    {
      "outputModuleId": 6,
      "outputId": 1,
      "inputModuleId": 11,
      "inputId": 1
    },
    {
      "outputModuleId": 13,
      "outputId": 0,
      "inputModuleId": 0,
      "inputId": 0
    },
    {
      "outputModuleId": 13,
      "outputId": 1,
      "inputModuleId": 14,
      "inputId": 0
    },
    {
      "outputModuleId": 13,
      "outputId": 2,
      "inputModuleId": 15,
      "inputId": 0
    },
    {
      "outputModuleId": 13,
      "outputId": 3,
      "inputModuleId": 16,
      "inputId": 0
    },
    {
      "outputModuleId": 13,
      "outputId": 4,
      "inputModuleId": 0,
      "inputId": 2
    },
    {
      "outputModuleId": 13,
      "outputId": 8,
      "inputModuleId": 17,
      "inputId": 0
    },
    {
      "outputModuleId": 13,
      "outputId": 9,
      "inputModuleId": 17,
      "inputId": 2
    },
    {
      "outputModuleId": 12,
      "outputId": 6,
      "inputModuleId": 2,
      "inputId": 0
    },
    {
      "outputModuleId": 17,
      "outputId": 0,
      "inputModuleId": 2,
      "inputId": 1
    },
    {
      "outputModuleId": 17,
      "outputId": 2,
      "inputModuleId": 12,
      "inputId": 4
    },
    {
      "outputModuleId": 16,
      "outputId": 2,
      "inputModuleId": 1,
      "inputId": 4
    },
    {
      "outputModuleId": 1,
      "outputId": 6,
      "inputModuleId": 18,
      "inputId": 0
    },
    {
      "outputModuleId": 16,
      "outputId": 0,
      "inputModuleId": 18,
      "inputId": 1
    },
    {
      "outputModuleId": 2,
      "outputId": 0,
      "inputModuleId": 11,
      "inputId": 2
    },
    {
      "outputModuleId": 2,
      "outputId": 1,
      "inputModuleId": 9,
      "inputId": 2
    },
    {
      "outputModuleId": 15,
      "outputId": 0,
      "inputModuleId": 9,
      "inputId": 0
    },
    {
      "outputModuleId": 15,
      "outputId": 2,
      "inputModuleId": 11,
      "inputId": 0
    },
    {
      "outputModuleId": 9,
      "outputId": 0,
      "inputModuleId": 3,
      "inputId": 11
    },
    {
      "outputModuleId": 11,
      "outputId": 0,
      "inputModuleId": 3,
      "inputId": 13
    },
    {
      "outputModuleId": 9,
      "outputId": 1,
      "inputModuleId": 3,
      "inputId": 12
    },
    {
      "outputModuleId": 2,
      "outputId": 2,
      "inputModuleId": 9,
      "inputId": 5
    },
    {
      "outputModuleId": 14,
      "outputId": 0,
      "inputModuleId": 9,
      "inputId": 3
    },
    {
      "outputModuleId": 0,
      "outputId": 0,
      "inputModuleId": 3,
      "inputId": 2
    },
    {
      "outputModuleId": 18,
      "outputId": 3,
      "inputModuleId": 3,
      "inputId": 9
    },
    {
      "outputModuleId": 19,
      "outputId": 1,
      "inputModuleId": 20,
      "inputId": 3
    },
    {
      "outputModuleId": 19,
      "outputId": 8,
      "inputModuleId": 20,
      "inputId": 4
    },
    {
      "outputModuleId": 19,
      "outputId": 1,
      "inputModuleId": 21,
      "inputId": 0
    },
    {
      "outputModuleId": 21,
      "outputId": 0,
      "inputModuleId": 20,
      "inputId": 5
    },
    {
      "outputModuleId": 20,
      "outputId": 0,
      "inputModuleId": 3,
      "inputId": 0
    },
    {
      "outputModuleId": 0,
      "outputId": 2,
      "inputModuleId": 20,
      "inputId": 0
    },
    {
      "outputModuleId": 14,
      "outputId": 2,
      "inputModuleId": 20,
      "inputId": 1
    },
    {
      "outputModuleId": 18,
      "outputId": 5,
      "inputModuleId": 3,
      "inputId": 14
    },
    {
      "outputModuleId": 2,
      "outputId": 5,
      "inputModuleId": 3,
      "inputId": 7
    },
    {
      "outputModuleId": 11,
      "outputId": 1,
      "inputModuleId": 22,
      "inputId": 0
    },
    {
      "outputModuleId": 21,
      "outputId": 1,
      "inputModuleId": 20,
      "inputId": 6
    },
    {
      "outputModuleId": 19,
      "outputId": 8,
      "inputModuleId": 21,
      "inputId": 1
    },
    {
      "outputModuleId": 19,
      "outputId": 11,
      "inputModuleId": 24,
      "inputId": 0
    },
    {
      "outputModuleId": 24,
      "outputId": 0,
      "inputModuleId": 20,
      "inputId": 7
    },
    {
      "outputModuleId": 21,
      "outputId": 0,
      "inputModuleId": 20,
      "inputId": 9
    },
    {
      "outputModuleId": 21,
      "outputId": 1,
      "inputModuleId": 20,
      "inputId": 10
    },
    {
      "outputModuleId": 23,
      "outputId": 0,
      "inputModuleId": 11,
      "inputId": 3
    },
    {
      "outputModuleId": 22,
      "outputId": 0,
      "inputModuleId": 20,
      "inputId": 2
    },
    {
      "outputModuleId": 13,
      "outputId": 5,
      "inputModuleId": 11,
      "inputId": 4
    },
    {
      "outputModuleId": 13,
      "outputId": 6,
      "inputModuleId": 23,
      "inputId": 0
    },
    {
      "outputModuleId": 26,
      "outputId": 3,
      "inputModuleId": 25,
      "inputId": 0
    },
    {
      "outputModuleId": 18,
      "outputId": 0,
      "inputModuleId": 3,
      "inputId": 6
    },
    {
      "outputModuleId": 2,
      "outputId": 6,
      "inputModuleId": 3,
      "inputId": 8
    },
    {
      "outputModuleId": 18,
      "outputId": 7,
      "inputModuleId": 3,
      "inputId": 10
    },
    {
      "outputModuleId": 5,
      "outputId": 2,
      "inputModuleId": 11,
      "inputId": 5
    },
    {
      "outputModuleId": 2,
      "outputId": 3,
      "inputModuleId": 3,
      "inputId": 3
    },
    {
      "outputModuleId": 7,
      "outputId": 2,
      "inputModuleId": 27,
      "inputId": 0
    },
    {
      "outputModuleId": 7,
      "outputId": 2,
      "inputModuleId": 27,
      "inputId": 1
    },
    {
      "outputModuleId": 27,
      "outputId": 0,
      "inputModuleId": 7,
      "inputId": 48
    },
    {
      "outputModuleId": 27,
      "outputId": 1,
      "inputModuleId": 7,
      "inputId": 49
    },
    {
      "outputModuleId": 29,
      "outputId": 0,
      "inputModuleId": 28,
      "inputId": 6
    },
    {
      "outputModuleId": 29,
      "outputId": 1,
      "inputModuleId": 28,
      "inputId": 7
    },
    {
      "outputModuleId": 28,
      "outputId": 0,
      "inputModuleId": 7,
      "inputId": 32
    },
    {
      "outputModuleId": 28,
      "outputId": 1,
      "inputModuleId": 7,
      "inputId": 36
    },
    {
      "outputModuleId": 3,
      "outputId": 0,
      "inputModuleId": 29,
      "inputId": 1
    },
    {
      "outputModuleId": 3,
      "outputId": 1,
      "inputModuleId": 29,
      "inputId": 4
    },
    {
      "outputModuleId": 23,
      "outputId": 2,
      "inputModuleId": 28,
      "inputId": 0
    },
    {
      "outputModuleId": 13,
      "outputId": 7,
      "inputModuleId": 23,
      "inputId": 2
    },
    {
      "outputModuleId": 13,
      "outputId": 7,
      "inputModuleId": 22,
      "inputId": 2
    },
    {
      "outputModuleId": 22,
      "outputId": 2,
      "inputModuleId": 27,
      "inputId": 2
    },
    {
      "outputModuleId": 19,
      "outputId": 0,
      "inputModuleId": 20,
      "inputId": 8
    },
    {
      "outputModuleId": 18,
      "outputId": 2,
      "inputModuleId": 19,
      "inputId": 1
    },
    {
      "outputModuleId": 26,
      "outputId": 3,
      "inputModuleId": 13,
      "inputId": 0
    },
    {
      "outputModuleId": 25,
      "outputId": 0,
      "inputModuleId": 13,
      "inputId": 1
    },
    {
      "outputModuleId": 25,
      "outputId": 1,
      "inputModuleId": 13,
      "inputId": 2
    },
    {
      "outputModuleId": 25,
      "outputId": 2,
      "inputModuleId": 13,
      "inputId": 3
    },
    {
      "outputModuleId": 25,
      "outputId": 3,
      "inputModuleId": 13,
      "inputId": 4
    },
    {
      "outputModuleId": 25,
      "outputId": 4,
      "inputModuleId": 13,
      "inputId": 5
    },
    {
      "outputModuleId": 25,
      "outputId": 5,
      "inputModuleId": 13,
      "inputId": 6
    },
    {
      "outputModuleId": 25,
      "outputId": 6,
      "inputModuleId": 13,
      "inputId": 7
    },
    {
      "outputModuleId": 25,
      "outputId": 7,
      "inputModuleId": 13,
      "inputId": 8
    },
    {
      "outputModuleId": 25,
      "outputId": 8,
      "inputModuleId": 13,
      "inputId": 9
    }
  ]
}