{
  "version": "0.4.0",
  "modules": [
    {
      "plugin": "Fundamental",
      "model": "LFO",
      "pos": [
        0.0,
        380.0
      ],
      "params": [
        1.0,
        1.0,
        -2.3649959564208984,
        0.0,
        0.5,
        0.0,
        0.0
      ]
    },
    {
      "plugin": "Fundamental",
      "model": "Scope",
      "pos": [
        1395.0,
        380.0
      ],
      "params": [
        1.0,
        0.20999999344348907,
        2.0,
        0.0,
        -6.0,
        0.0,
        0.0,
        0.0
      ],
      "data": {
        "lissajous": 0,
        "external": 1
      }
    },
    {
      "plugin": "mental",
      "model": "MentalButtons",
      "pos": [
        450.0,
        0.0
      ],
      "params": [
        0.0,
        0.0,
        0.0,
        0.0,
        0.0,
        0.0,
        0.0,
        0.0,
        0.0,
        0.0,
        0.0,
        0.0,
        0.0,
        0.0
      ],
      "data": {
        "buttons": [
          0,
          1,
          0,
          0,
          0,
          0,
          0
        ]
      }
    },
    {
      "plugin": "mental",
      "model": "MentalQuantiser",
      "pos": [
        180.0,
        0.0
      ],
      "params": [
        0.8384966254234314,
        0.0,
        0.0,
        0.0,
        0.0,
        0.0,
        0.0,
        0.0,
        0.0,
        0.0,
        0.0,
        0.0,
        0.0
      ],
      "data": {
        "buttons": [
          1,
          0,
          1,
          1,
          0,
          1,
          0,
          1,
          1,
          0,
          1,
          0
        ]
      }
    },
    {
      "plugin": "Core",
      "model": "AudioInterface",
      "pos": [
        1350.0,
        0.0
      ],
      "params": [],
      "data": {
        "deviceName": "ASIO: Focusrite USB 2.0 Audio Driver (18 in, 20 out)",
        "sampleRate": 44100.0,
        "blockSize": 256
      }
    },
    {
      "plugin": "AudibleInstruments",
      "model": "Braids",
      "pos": [
        660.0,
        0.0
      ],
      "params": [
        0.21749995648860931,
        0.0,
        0.0,
        0.0,
        0.5,
        0.0,
        0.5
      ],
      "data": {
        "settings": [
          10,
          0,
          0,
          0,
          0,
          0,
          0,
          0,
          0,
          0,
          0,
          0,
          255,
          0,
          0,
          0,
          0,
          0,
          0,
          0
        ]
      }
    },
    {
      "plugin": "mental",
      "model": "MentalMults",
      "pos": [
        150.0,
        0.0
      ],
      "params": []
    },
    {
      "plugin": "mental",
      "model": "MentalSubMixer",
      "pos": [
        1230.0,
        0.0
      ],
      "params": [
        0.54150021076202393,
        0.77550011873245239,
        0.0,
        0.25199997425079346,
        0.28549996018409729,
        0.66749995946884155,
        0.72800010442733765,
        0.0,
        1.0
      ]
    },
    {
      "plugin": "Fundamental",
      "model": "LFO",
      "pos": [
        0.0,
        0.0
      ],
      "params": [
        1.0,
        1.0,
        1.0789985656738281,
        0.0,
        0.5,
        0.0,
        0.0
      ]
    },
    {
      "plugin": "mental",
      "model": "MentalMuxes",
      "pos": [
        330.0,
        0.0
      ],
      "params": []
    },
    {
      "plugin": "AudibleInstruments",
      "model": "Branches",
      "pos": [
        255.0,
        380.0
      ],
      "params": [
        0.68900012969970703,
        0.50450003147125244
      ]
    },
    {
      "plugin": "Fundamental",
      "model": "ADSR",
      "pos": [
        540.0,
        0.0
      ],
      "params": [
        0.71000057458877563,
        0.53700017929077148,
        0.74400025606155396,
        0.7145003080368042
      ]
    },
    {
      "plugin": "AudibleInstruments",
      "model": "Veils",
      "pos": [
        1050.0,
        0.0
      ],
      "params": [
        0.31200003623962402,
        0.27150002121925354,
        0.10200000554323196,
        0.43799999356269836,
        1.0,
        1.0,
        1.0,
        1.0
      ]
    },
    {
      "plugin": "mental",
      "model": "MentalPitchShift",
      "pos": [
        270.0,
        0.0
      ],
      "params": [
        -2.1060001850128174,
        -0.7155001163482666,
        4.8815040588378906,
        0.0
      ]
    },
    {
      "plugin": "Fundamental",
      "model": "VCO",
      "pos": [
        900.0,
        0.0
      ],
      "params": [
        1.0,
        1.0,
        0.0,
        0.0,
        0.5,
        0.0,
        0.0
      ]
    },
    {
      "plugin": "AudibleInstruments",
      "model": "Kinks",
      "pos": [
        150.0,
        380.0
      ],
      "params": []
    },
    {
      "plugin": "mental",
      "model": "MentalMuxes",
      "pos": [
        390.0,
        0.0
      ],
      "params": []
    },
    {
      "plugin": "mental",
      "model": "MentalSums",
      "pos": [
        510.0,
        0.0
      ],
      "params": []
    },
    {
      "plugin": "Fundamental",
      "model": "ADSR",
      "pos": [
        765.0,
        380.0
      ],
      "params": [
        0.12950001657009125,
        0.37399998307228088,
        0.5,
        0.5
      ]
    },
    {
      "plugin": "AudibleInstruments",
      "model": "Branches",
      "pos": [
        345.0,
        380.0
      ],
      "params": [
        0.15950006246566772,
        0.25850015878677368
      ]
    },
    {
      "plugin": "mental",
      "model": "MentalClockDivider",
      "pos": [
        210.0,
        380.0
      ],
      "params": [
        0.0
      ]
    },
    {
      "plugin": "Autodafe",
      "model": "Phaser",
      "pos": [
        1305.0,
        380.0
      ],
      "params": [
        0.0,
        0.3434256911277771,
        0.41649997234344482
      ]
    },
    {
      "plugin": "AudibleInstruments",
      "model": "Rings",
      "pos": [
        885.0,
        380.0
      ],
      "params": [
        0.0,
        0.0,
        30.0,
        0.5,
        0.41000029444694519,
        0.49650070071220398,
        0.50750088691711426,
        0.0,
        0.0,
        0.0,
        0.13499969244003296,
        0.0
      ],
      "data": {
        "polyphony": 0,
        "model": 1
      }
    },
    {
      "plugin": "Fundamental",
      "model": "LFO",
      "pos": [
        615.0,
        380.0
      ],
      "params": [
        1.0,
        1.0,
        -5.2209901809692383,
        0.0,
        0.5,
        0.0,
        0.0
      ]
    },
    {
      "plugin": "Befaco",
      "model": "SpringReverb",
      "pos": [
        1185.0,
        380.0
      ],
      "params": [
        0.42649996280670166,
        0.71850013732910156,
        0.0,
        0.71750009059906006
      ]
    },
    {
      "plugin": "ML_modules",
      "model": "FreeVerb",
      "pos": [
        1095.0,
        380.0
      ],
      "params": [
        0.39050009846687317,
        0.75349974632263184,
        0.0
      ]
    },
    {
      "plugin": "AudibleInstruments",
      "model": "Branches",
      "pos": [
        435.0,
        380.0
      ],
      "params": [
        0.14599993824958801,
        0.4670003354549408
      ]
    },
    {
      "plugin": "AudibleInstruments",
      "model": "Branches",
      "pos": [
        525.0,
        380.0
      ],
      "params": [
        0.23149992525577545,
        0.63350021839141846
      ]
    }
  ],
  "wires": [
    {
      "outputModuleId": 0,
      "outputId": 1,
      "inputModuleId": 12,
      "inputId": 2
    },
    {
      "outputModuleId": 3,
      "outputId": 1,
      "inputModuleId": 6,
      "inputId": 1
    },
    {
      "outputModuleId": 7,
      "outputId": 0,
      "inputModuleId": 4,
      "inputId": 0
    },
    {
      "outputModuleId": 7,
      "outputId": 1,
      "inputModuleId": 4,
      "inputId": 1
    },
    {
      "outputModuleId": 6,
      "outputId": 7,
      "inputModuleId": 9,
      "inputId": 1
    },
    {
      "outputModuleId": 3,
      "outputId": 8,
      "inputModuleId": 9,
      "inputId": 2
    },
    {
      "outputModuleId": 8,
      "outputId": 3,
      "inputModuleId": 6,
      "inputId": 0
    },
    {
      "outputModuleId": 9,
      "outputId": 0,
      "inputModuleId": 13,
      "inputId": 0
    },
    {
      "outputModuleId": 10,
      "outputId": 0,
      "inputModuleId": 9,
      "inputId": 0
    },
    {
      "outputModuleId": 6,
      "outputId": 0,
      "inputModuleId": 10,
      "inputId": 0
    },
    {
      "outputModuleId": 6,
      "outputId": 1,
      "inputModuleId": 5,
      "inputId": 0
    },
    {
      "outputModuleId": 26,
      "outputId": 0,
      "inputModuleId": 11,
      "inputId": 4
    },
    {
      "outputModuleId": 11,
      "outputId": 0,
      "inputModuleId": 12,
      "inputId": 4
    },
    {
      "outputModuleId": 12,
      "outputId": 0,
      "inputModuleId": 22,
      "inputId": 7
    },
    {
      "outputModuleId": 5,
      "outputId": 0,
      "inputModuleId": 12,
      "inputId": 0
    },
    {
      "outputModuleId": 13,
      "outputId": 0,
      "inputModuleId": 9,
      "inputId": 4
    },
    {
      "outputModuleId": 14,
      "outputId": 1,
      "inputModuleId": 12,
      "inputId": 3
    },
    {
      "outputModuleId": 6,
      "outputId": 8,
      "inputModuleId": 13,
      "inputId": 1
    },
    {
      "outputModuleId": 13,
      "outputId": 1,
      "inputModuleId": 9,
      "inputId": 5
    },
    {
      "outputModuleId": 26,
      "outputId": 2,
      "inputModuleId": 9,
      "inputId": 3
    },
    {
      "outputModuleId": 16,
      "outputId": 1,
      "inputModuleId": 5,
      "inputId": 1
    },
    {
      "outputModuleId": 3,
      "outputId": 0,
      "inputModuleId": 14,
      "inputId": 0
    },
    {
      "outputModuleId": 6,
      "outputId": 3,
      "inputModuleId": 15,
      "inputId": 4
    },
    {
      "outputModuleId": 15,
      "outputId": 6,
      "inputModuleId": 12,
      "inputId": 1
    },
    {
      "outputModuleId": 12,
      "outputId": 1,
      "inputModuleId": 17,
      "inputId": 1
    },
    {
      "outputModuleId": 16,
      "outputId": 0,
      "inputModuleId": 3,
      "inputId": 1
    },
    {
      "outputModuleId": 12,
      "outputId": 2,
      "inputModuleId": 16,
      "inputId": 2
    },
    {
      "outputModuleId": 19,
      "outputId": 2,
      "inputModuleId": 16,
      "inputId": 0
    },
    {
      "outputModuleId": 12,
      "outputId": 2,
      "inputModuleId": 1,
      "inputId": 0
    },
    {
      "outputModuleId": 3,
      "outputId": 0,
      "inputModuleId": 1,
      "inputId": 1
    },
    {
      "outputModuleId": 2,
      "outputId": 2,
      "inputModuleId": 17,
      "inputId": 0
    },
    {
      "outputModuleId": 17,
      "outputId": 0,
      "inputModuleId": 16,
      "inputId": 1
    },
    {
      "outputModuleId": 18,
      "outputId": 0,
      "inputModuleId": 12,
      "inputId": 7
    },
    {
      "outputModuleId": 6,
      "outputId": 4,
      "inputModuleId": 19,
      "inputId": 0
    },
    {
      "outputModuleId": 19,
      "outputId": 0,
      "inputModuleId": 18,
      "inputId": 4
    },
    {
      "outputModuleId": 6,
      "outputId": 4,
      "inputModuleId": 20,
      "inputId": 0
    },
    {
      "outputModuleId": 20,
      "outputId": 3,
      "inputModuleId": 19,
      "inputId": 2
    },
    {
      "outputModuleId": 21,
      "outputId": 0,
      "inputModuleId": 24,
      "inputId": 2
    },
    {
      "outputModuleId": 12,
      "outputId": 3,
      "inputModuleId": 21,
      "inputId": 0
    },
    {
      "outputModuleId": 22,
      "outputId": 0,
      "inputModuleId": 25,
      "inputId": 0
    },
    {
      "outputModuleId": 19,
      "outputId": 1,
      "inputModuleId": 22,
      "inputId": 5
    },
    {
      "outputModuleId": 23,
      "outputId": 1,
      "inputModuleId": 22,
      "inputId": 3
    },
    {
      "outputModuleId": 24,
      "outputId": 0,
      "inputModuleId": 7,
      "inputId": 4
    },
    {
      "outputModuleId": 25,
      "outputId": 0,
      "inputModuleId": 7,
      "inputId": 1
    },
    {
      "outputModuleId": 25,
      "outputId": 1,
      "inputModuleId": 7,
      "inputId": 10
    },
    {
      "outputModuleId": 20,
      "outputId": 1,
      "inputModuleId": 26,
      "inputId": 0
    },
    {
      "outputModuleId": 9,
      "outputId": 1,
      "inputModuleId": 16,
      "inputId": 4
    },
    {
      "outputModuleId": 13,
      "outputId": 2,
      "inputModuleId": 16,
      "inputId": 5
    },
    {
      "outputModuleId": 9,
      "outputId": 1,
      "inputModuleId": 13,
      "inputId": 2
    },
    {
      "outputModuleId": 20,
      "outputId": 4,
      "inputModuleId": 27,
      "inputId": 0
    },
    {
      "outputModuleId": 27,
      "outputId": 0,
      "inputModuleId": 16,
      "inputId": 3
    },
    {
      "outputModuleId": 27,
      "outputId": 2,
      "inputModuleId": 25,
      "inputId": 3
    },
    {
      "outputModuleId": 20,
      "outputId": 3,
      "inputModuleId": 27,
      "inputId": 2
    }
  ]
}